HIERARCHY
ROOT Hips
{
	OFFSET 0.000000 0.000000 0.000000
	CHANNELS 6 Xposition Yposition Zposition Yrotation Xrotation Zrotation
	JOINT Chest
	{
		OFFSET 0.000000 -0.009281 11.569106
		CHANNELS 3 Yrotation Xrotation Zrotation
		JOINT Chest2
		{
			OFFSET -0.000000 0.016865 9.269641
			CHANNELS 3 Yrotation Xrotation Zrotation
			JOINT Chest3
			{
				OFFSET -0.000000 0.000001 8.374491
				CHANNELS 3 Yrotation Xrotation Zrotation
				JOINT Chest4
				{
					OFFSET -0.000000 0.000001 8.374493
					CHANNELS 3 Yrotation Xrotation Zrotation
					JOINT Neck
					{
						OFFSET -0.000000 0.000002 12.152554
						CHANNELS 3 Yrotation Xrotation Zrotation
						JOINT Head
						{
							OFFSET -0.000000 0.040101 7.802319
							CHANNELS 3 Yrotation Xrotation Zrotation
							End Site
							{
								OFFSET -0.000000 0.020947 14.853096
							}
						}
					}
					JOINT RightCollar
					{
						OFFSET 2.894404 0.000001 6.791374
						CHANNELS 3 Yrotation Xrotation Zrotation
						JOINT RightShoulder
						{
							OFFSET 13.574684 0.000001 0.000000
							CHANNELS 3 Yrotation Xrotation Zrotation
							JOINT RightElbow
							{
								OFFSET 23.923903 0.000002 0.000000
								CHANNELS 3 Yrotation Xrotation Zrotation
								JOINT RightWrist
								{
									OFFSET 19.846718 0.012767 0.000000
									CHANNELS 3 Yrotation Xrotation Zrotation
									End Site
									{
										OFFSET 14.973145 0.000001 0.000000
									}
								}
							}
						}
					}
					JOINT LeftCollar
					{
						OFFSET -2.894404 0.000001 6.791374
						CHANNELS 3 Yrotation Xrotation Zrotation
						JOINT LeftShoulder
						{
							OFFSET -13.574684 -0.000001 0.000000
							CHANNELS 3 Yrotation Xrotation Zrotation
							JOINT LeftElbow
							{
								OFFSET -23.923903 -0.000002 0.000000
								CHANNELS 3 Yrotation Xrotation Zrotation
								JOINT LeftWrist
								{
									OFFSET -19.846718 0.012763 0.000000
									CHANNELS 3 Yrotation Xrotation Zrotation
									End Site
									{
										OFFSET -14.973145 -0.000001 0.000000
									}
								}
							}
						}
					}
				}
			}
		}
	}
	JOINT RightHip
	{
		OFFSET 9.469263 0.004643 0.045487
		CHANNELS 3 Yrotation Xrotation Zrotation
		JOINT RightKnee
		{
			OFFSET 0.000000 0.002661 -40.478676
			CHANNELS 3 Yrotation Xrotation Zrotation
			JOINT RightAnkle
			{
				OFFSET 0.000000 0.049106 -35.224068
				CHANNELS 3 Yrotation Xrotation Zrotation
				JOINT RightToe
				{
					OFFSET -0.000001 12.539529 -6.151390
					CHANNELS 3 Yrotation Xrotation Zrotation
					End Site
					{
						OFFSET -0.000001 5.044994 -1.291870
					}
				}
			}
		}
	}
	JOINT LeftHip
	{
		OFFSET -9.469263 0.004641 0.045487
		CHANNELS 3 Yrotation Xrotation Zrotation
		JOINT LeftKnee
		{
			OFFSET 0.000000 0.002661 -40.478676
			CHANNELS 3 Yrotation Xrotation Zrotation
			JOINT LeftAnkle
			{
				OFFSET 0.000000 0.049106 -35.224068
				CHANNELS 3 Yrotation Xrotation Zrotation
				JOINT LeftToe
				{
					OFFSET -0.000001 12.539529 -6.151390
					CHANNELS 3 Yrotation Xrotation Zrotation
					End Site
					{
						OFFSET -0.000001 5.044994 -1.291870
					}
				}
			}
		}
	}
}
MOTION
Frames: 7
Frame Time: 0.016667
10.869877 5.977209 82.980812 -5.758901 -2.191741 -109.073825 -0.586914 -4.222712 5.971026 -0.209891 -1.881996 2.639055 -0.209891 -1.881997 2.639056 -0.149278 -1.412436 1.978470 3.945153 -17.856167 -6.278201 5.156303 3.078892 -10.238073 8.293141 2.366246 -11.509753 69.374464 1.226389 12.779364 2.096069 -27.339321 4.411866 13.945759 -8.039334 -8.004408 -9.298246 -2.111920 -15.519144 -74.436856 1.608397 -10.007302 4.324843 2.165277 1.336412 2.358820 -32.983527 -0.519637 -0.418382 -9.453917 -3.703617 0.840000 -1.079094 -2.289753 0.863071 4.304646 2.678422 -0.018057 -0.010571 -0.002941 0.229665 -9.312610 0.433219 0.214476 -0.384915 -3.260231 -0.120076 3.700042 3.348387 0.050106 -0.042635 0.002829 
10.862767 6.003049 82.980309 -5.775488 -2.179963 -109.032611 -0.584614 -4.237499 6.008130 -0.208758 -1.888270 2.654361 -0.208758 -1.888271 2.654360 -0.148353 -1.417142 1.989944 3.922856 -17.971213 -6.091398 5.183469 2.866925 -9.901127 8.301068 2.460464 -11.520411 69.109459 1.311557 13.290957 1.540592 -27.285684 4.278369 14.228791 -8.795673 -9.126130 -9.214160 -2.196679 -15.538798 -74.318851 1.625916 -10.669530 4.894523 3.683343 2.040525 2.459237 -33.957163 0.784504 -0.451126 -9.448479 -3.689300 0.853146 -1.101528 -2.325465 0.864243 4.305327 2.664624 -0.009261 -0.009601 -0.003311 0.207790 -9.309479 0.419440 0.206832 -0.382359 -3.273429 -0.121853 3.689989 3.327492 0.056551 -0.044437 0.003567 
10.856167 6.027398 82.979683 -5.798186 -2.169232 -108.988311 -0.578278 -4.240301 6.038430 -0.205989 -1.889112 2.666660 -0.205989 -1.889112 2.666658 -0.146236 -1.417765 1.999175 3.891095 -18.105979 -5.880716 5.201560 2.617893 -9.523765 8.335059 2.517005 -11.481390 68.889643 1.326227 13.805399 1.021639 -27.019706 4.005871 14.034341 -9.625034 -10.173723 -9.139633 -2.330861 -15.518480 -74.120994 1.632215 -11.387145 5.424687 4.891133 2.798177 3.040749 -34.985503 1.856463 -0.481055 -9.447350 -3.672658 0.857772 -1.130776 -2.360746 0.865865 4.309714 2.660766 0.001384 -0.007699 -0.003042 0.186435 -9.308639 0.400146 0.197372 -0.388853 -3.272936 -0.124787 3.683656 3.324635 0.062928 -0.045069 0.003882 
10.850815 6.050588 82.979012 -5.829788 -2.158613 -108.940158 -0.565580 -4.230919 6.067394 -0.200717 -1.884681 2.678968 -0.200717 -1.884682 2.678968 -0.142263 -1.414423 2.008426 3.853395 -18.250445 -5.656490 5.212967 2.350345 -9.123955 8.380833 2.512720 -11.433364 68.697558 1.250674 14.371350 0.481522 -27.008764 3.675251 13.404203 -10.521603 -11.030919 -9.079606 -2.512258 -15.525138 -73.878365 1.729450 -12.141582 5.920168 5.694644 3.628628 4.376275 -36.227525 2.425432 -0.508422 -9.451479 -3.665460 0.859761 -1.168409 -2.393453 0.861950 4.319258 2.640964 0.012865 -0.005965 -0.002262 0.165618 -9.310677 0.369795 0.187553 -0.409457 -3.263096 -0.129832 3.684783 3.297511 0.067962 -0.044860 0.003241 
10.843583 6.072412 82.977875 -5.872901 -2.149621 -108.887552 -0.543719 -4.219386 6.097733 -0.191437 -1.879683 2.692111 -0.191437 -1.879683 2.692113 -0.135285 -1.410638 2.018316 3.804421 -18.393068 -5.421350 5.206423 2.085434 -8.708317 8.416012 2.489011 -11.401584 68.522357 1.137528 14.933481 -0.146747 -27.562089 3.389218 12.326355 -11.534443 -11.520490 -9.041834 -2.672677 -15.555548 -73.659458 1.813710 -12.910711 6.444647 6.087567 4.561240 6.807541 -37.715246 2.148245 -0.543925 -9.458907 -3.677125 0.873518 -1.225413 -2.418094 0.850269 4.340682 2.632826 0.024386 -0.005627 -0.001237 0.138782 -9.315259 0.322053 0.185210 -0.445152 -3.250362 -0.132977 3.692851 3.287619 0.068808 -0.045331 0.002226 
10.833406 6.093159 82.976181 -5.926942 -2.145299 -108.832043 -0.507628 -4.215491 6.121169 -0.175260 -1.877835 2.702631 -0.175260 -1.877835 2.702631 -0.123130 -1.409183 2.026254 3.724529 -18.530756 -5.163176 5.149718 1.828272 -8.260976 8.433073 2.493864 -11.343541 68.352100 0.964087 15.415134 -0.786830 -28.338339 3.133111 10.648782 -12.636132 -11.608290 -9.044116 -2.788972 -15.578009 -73.467523 1.738754 -13.665080 7.064325 6.252939 5.631586 10.255453 -38.973097 0.858967 -0.579809 -9.465146 -3.685735 0.893016 -1.307512 -2.444132 0.831986 4.373595 2.637420 0.035267 -0.004861 -0.000832 0.113679 -9.320905 0.265460 0.182660 -0.498384 -3.241615 -0.131453 3.707622 3.311664 0.066437 -0.046018 0.001964 
10.820028 6.114162 82.974670 -5.991117 -2.143544 -108.770988 -0.468794 -4.225170 6.138620 -0.157646 -1.881956 2.710362 -0.157646 -1.881956 2.710362 -0.109877 -1.412200 2.032103 3.623104 -18.661414 -4.879837 5.060697 1.583219 -7.774830 8.444345 2.499407 -11.267779 68.286831 0.596470 15.846633 -1.454028 -28.757084 2.865349 8.267118 -13.735180 -11.340246 -9.072483 -2.892323 -15.638025 -73.270438 1.529934 -14.401148 7.768246 6.515959 6.804224 14.511806 -39.655689 -1.325434 -0.614982 -9.463302 -3.696310 0.913890 -1.424104 -2.462772 0.809554 4.420717 2.610212 0.044597 -0.002559 -0.001334 0.088949 -9.326502 0.211483 0.179775 -0.568046 -3.242461 -0.126172 3.728284 3.344248 0.061987 -0.046787 0.001852 
